<svg width="133" height="145" viewBox="0 0 133 145" fill="none" xmlns="http://www.w3.org/2000/svg">
<path d="M97 4.1493C98.4288 4.49267 99.8586 4.83234 101.289 5.16883C107.276 6.59901 113.179 8.13434 119 10.1493C115.738 13.7558 112.006 16.1651 107.875 18.6493C100.737 23.0138 93.768 27.5924 86.853 32.3016C85.7714 33.0325 85.7714 33.0325 84.668 33.7782C84.0314 34.2121 83.3949 34.6459 82.739 35.0929C81 36.1493 81 36.1493 78 37.1493C78.0089 37.8425 78.0178 38.5356 78.0269 39.2498C78.8991 110.608 78.8991 110.608 71 143.149C69.35 143.479 67.7 143.809 66 144.149C62.6542 137.458 61.3682 130.456 60 123.149C59.8666 122.465 59.7333 121.78 59.5958 121.075C57.5318 110.172 56.82 99.52 56.9801 88.4325C57.008 86.3261 57.0217 84.22 57.0308 82.1134C57.0341 81.4092 57.0375 80.705 57.0409 79.9795C57.0475 78.5448 57.0538 77.1101 57.0597 75.6754C57.0816 72.0297 57.142 68.391 57.2739 64.7474C58.3956 48.7908 58.3956 48.7908 52.9475 34.5763C47.9889 30.3406 42.4978 27.6544 36.486 25.2217C33.0358 23.7334 30.2283 21.7849 27.1875 19.5868C22.928 16.6962 18.6727 14.3059 14 12.1493C14 11.4893 14 10.8293 14 10.1493C38.113 -1.37095 71.4132 -2.66426 97 4.1493Z" fill="white"/>
<path d="M0 16.1493C0.881719 16.7158 0.881719 16.7158 1.78125 17.2938C11.7528 23.4114 22.389 28.0524 33.0513 32.8221C35.0571 33.7249 37.0579 34.6388 39.0542 35.5624C40.025 36.0113 40.9958 36.4602 41.9961 36.9227C42.8629 37.3267 43.7297 37.7306 44.6228 38.1469C47.216 39.312 47.216 39.312 51 40.1493C51 44.1093 51 48.0693 51 52.1493C44.07 51.8193 37.14 51.4893 30 51.1493C33.2458 80.0006 40.2456 103.667 54 129.149C50.0111 129.149 48.0702 127.262 45.0625 124.899C44.4913 124.453 43.9201 124.007 43.3315 123.548C33.8407 115.978 25.3865 107.537 19 97.1493C17.981 95.5096 17.981 95.5096 16.9414 93.8368C3.40249 71.4827 0 42.0301 0 16.1493Z" fill="white"/>
<path d="M132 18.1493C132.244 28.1377 131.573 37.6799 130.25 47.5868C130.014 49.5214 130.014 49.5214 129.773 51.495C126.239 78.6458 116.504 103.331 94.2051 120.534C90.2067 123.51 86.1265 126.355 82 129.149C82 125.644 82.8812 124.032 84.4492 120.915C84.9656 119.873 85.4819 118.832 86.0139 117.758C86.5662 116.65 87.1185 115.541 87.6875 114.399C97.8445 93.5747 101.814 74.02 104 51.1493C97.4 51.1493 90.8 51.1493 84 51.1493C84 47.8493 84 44.5493 84 41.1493C95.3843 35.2981 106.955 29.8751 118.589 24.5431C119.762 24.0032 120.936 23.4633 122.145 22.9071C123.2 22.4239 124.256 21.9406 125.343 21.4427C127.369 20.4565 129.815 18.1493 132 18.1493Z" fill="white"/>
</svg>
